# xmcd
#
# Track frame offsets:
#	150
#	16674
#	32367
#	52111
#	70413
#	87712
#	105540
#	122640
#	138846
#	157185
#	175418
#
# Disc length: 2560 seconds
#
# Revision: 0
# Processed by: cddbd v1.5.2PL0 Copyright (c) Steve Scherf et al.
# Submitted via: EasyCDDAExtractor 2010.6.0.0
#
DISCID=9209fe0b
DTITLE=Suvi Hiltunen - Oot valovuoden p‰‰ss‰
DYEAR=2008
DGENRE=Pop-Folk
TTITLE0=Oot valovuoden p‰‰ss‰
TTITLE1=Vie kauas pois
TTITLE2=En jaksa en‰‰
TTITLE3=T‰hti‰ t‰m‰n illan
TTITLE4=Mik‰‰n ei ole ennallaan
TTITLE5=Rakkaus tulee kyl‰‰n
TTITLE6=Viime kes‰st‰
TTITLE7=Hiiltynyt rakkaus
TTITLE8=K‰sikirjoitus
TTITLE9=Eikˆ mik‰‰n riitt‰nyt
TTITLE10=J‰‰tyneit‰ kyyneleit‰
EXTD=
EXTT0=
EXTT1=
EXTT2=
EXTT3=
EXTT4=
EXTT5=
EXTT6=
EXTT7=
EXTT8=
EXTT9=
EXTT10=
PLAYORDER=
